PathFileType	4	(X/Y/Z)	Patient4_TMGait_0pt6_02_left_08.trc.trc
DataRate	CameraRate	NumFrames	NumMarkers	Units	OrigDataRate	OrigDataStartFrame	OrigNumFrames
81.871345029240	81.871345029240	4	33	mm	81.871345029240	106	       141
Frame#	Time	Sacral			L.Shoulder			Chest			R.Shoulder			Neck			R.ASIS			L.ASIS			R.Thigh.Superior			R.Thigh.Lateral			R.Thigh.Inferior			R.Patella			L.Thigh.Superior			L.Thigh.Lateral			L.Thigh.Inferior			L.Patella			L.Shank.Superior			L.Shank.Lateral			L.Shank.Inferior			R.Shank.Superior			R.Shank.Lateral			R.Shank.Inferior			R.Heel			R.Midfoot.Superior			R.Midfoot.Lateral			R.Toe			L.Heel			L.Midfoot.Lateral			L.Midfoot.Superior			L.Toe			L.Elbow			L.Wrist			R.Elbow			R.Wrist			
		X1	Y1	Z1	X2	Y2	Z2	X3	Y3	Z3	X4	Y4	Z4	X5	Y5	Z5	X6	Y6	Z6	X7	Y7	Z7	X8	Y8	Z8	X9	Y9	Z9	X10	Y10	Z10	X11	Y11	Z11	X12	Y12	Z12	X13	Y13	Z13	X14	Y14	Z14	X15	Y15	Z15	X16	Y16	Z16	X17	Y17	Z17	X18	Y18	Z18	X19	Y19	Z19	X20	Y20	Z20	X21	Y21	Z21	X22	Y22	Z22	X23	Y23	Z23	X24	Y24	Z24	X25	Y25	Z25	X26	Y26	Z26	X27	Y27	Z27	X28	Y28	Z28	X29	Y29	Z29	X30	Y30	Z30	X31	Y31	Z31	X32	Y32	Z32	X33	Y33	Z33	

106	11.022500000000	770.043997602231	1014.652246906300	508.304105590707	930.053919464912	1444.565501693746	326.270363036508	1051.620439673792	1371.617815268675	471.315886045074	989.791297868787	1439.917074413787	655.370634539586	930.878136946316	1499.151194691951	482.678858285479	1000.556843223070	944.683104756103	608.866308447278	971.520080307190	968.902575672870	336.886633497292	1015.620886546446	737.142979693995	577.272600533282	920.927137856402	634.308411888987	633.719514860931	990.722447358240	577.137886310837	553.292365996864	980.688654538158	492.347955917174	555.815045438760	1057.125684943942	794.605143510571	363.082417513126	1021.670213523886	666.863194040577	279.333869417729	1127.443275424845	610.513066049367	340.589577276572	1154.434291545033	534.284666335358	329.203531408900	1119.943017106454	458.677233933927	320.974919611398	1018.900586039743	351.653928487753	274.317133574258	1078.977792573978	232.910805914974	325.010552782420	951.867167157852	405.445755367387	556.162034346265	875.847820524232	299.789096588237	608.532586781502	920.904467903655	207.978949182919	541.146327068754	786.846563651816	43.939388845771	494.986592439563	958.429546598934	96.951918369769	536.198623444579	868.250177497585	36.701752113944	571.232623635237	1076.518545916683	41.466549856972	566.336226021190	954.881638351684	75.829097047678	367.423209153658	1022.419460899077	70.272704353820	282.715810371049	1108.303295470928	131.747676128109	300.928270223604	1231.051206153949	78.876066424376	264.318074414132	841.866486481868	1096.111525270958	225.161846798818	844.787152166099	837.357092088398	215.729900546950	1082.115721735908	1103.498768600724	769.818577652641	1320.330507397790	1023.691887791715	713.387390139516	
107	11.034714285714	768.768235410033	1014.547664486698	508.599013003297	929.400975280078	1444.688532796986	327.404550280000	1051.022915081515	1370.964053077163	472.012077361091	989.684348717403	1438.974915445757	656.337764723013	930.555726447452	1498.755414063888	483.969873985805	999.249550238079	944.399988998682	608.934335161890	970.073782155820	968.360657735276	336.803492480160	1013.035078520564	736.532141581520	577.785093047980	917.310783172847	634.186549746620	634.016436024324	986.558605180512	576.553233616036	553.683036572668	975.750507209918	491.866198089799	556.035508844575	1053.991839750714	792.937103184281	363.213910722266	1017.882816560338	665.163386580023	279.610968776697	1123.171996085071	608.633400620599	341.583749873534	1151.028400258913	534.580395843651	330.670826958536	1120.346552145676	459.551028024040	321.899556480340	1026.369936823381	346.914009708713	274.127609159307	1093.196528900190	231.706964840755	325.042580366210	946.464568164472	405.152667823012	556.308621626763	869.876028209639	299.869077253317	608.701085323359	914.337182728001	207.842915263371	541.249163541198	779.512157506374	44.138605103636	495.080285474152	951.162821321412	96.920065470990	536.287377596158	860.924404265933	36.706394550214	571.249145055718	1069.184507148342	41.246946194281	566.393283726707	978.593694738896	67.304812600505	366.350618995637	1047.158779316477	65.711556740875	282.216472149654	1129.128884644590	132.102249385387	301.041116381718	1255.102315669287	86.452444546535	265.559155597847	835.367151748346	1098.276582659283	225.551312125186	831.635192290456	839.643713560740	217.271612084949	1088.095703202813	1104.389130457437	768.759956154072	1329.362100703692	1038.470529286007	709.380409828439	
108	11.046928571429	767.544118527098	1014.421841739292	508.752666748948	928.824522655786	1444.820490735416	328.427971440219	1050.441070020811	1370.309641832399	472.641504313413	989.501461616247	1438.017177131359	657.205483429512	930.240997028154	1498.357127018668	485.141755591056	998.005976134700	944.110395722566	608.890845797740	968.682025488193	967.811792143995	336.601590585421	1010.540887844777	735.920377198255	578.191321475801	913.769634929116	634.084514975042	634.199923257349	982.471144089151	575.978514642445	553.962899805875	970.897048054016	491.383802052970	556.132426214990	1050.745666804491	791.027253676651	363.172780260953	1013.638734223408	663.204391167449	279.853966807781	1118.600078602681	606.449826846421	342.315811244806	1147.174064236023	534.560280185599	332.083673759213	1120.181831315523	460.304017910800	322.871706235752	1033.299482489939	342.627815524519	274.071185464994	1106.340368322123	231.256690754151	325.358625827260	941.120754090658	404.874976874169	556.376064409551	863.953240467530	299.989392975860	608.824262755051	907.791649127099	207.728209901104	541.320532273876	772.177714672898	44.361943578155	495.190295333600	943.899548502897	96.890419821314	536.372946295651	853.597042368810	36.714049266742	571.256987384331	1061.856512829715	41.031353594348	566.444805551138	1001.069447868179	60.508752250836	365.673126686591	1070.594626724645	62.475533035358	282.205239740329	1148.620182603049	133.331824147488	301.572428319433	1277.341785622562	94.539090510114	267.480870004069	829.161776664203	1100.544546917476	225.829048512054	819.495510095407	842.108992939953	218.782743687561	1093.531878876015	1105.217378468343	767.457485965647	1337.002433124781	1052.995456801199	705.393651449066	
109	11.059142857143	766.381035804824	1014.295217687892	508.777948253834	928.303177749361	1444.966724294306	329.331485646701	1049.869315104238	1369.682678008298	473.192776168944	989.246969030908	1437.079581051056	657.960937893948	929.922955866331	1497.976019156660	486.180398502799	996.834810973492	943.819861647641	608.734299925945	967.346221214609	967.287493817064	336.295801359295	1008.107224480076	735.318778717967	578.439477090379	910.300134100762	634.017113631700	634.264149207690	978.438977882342	575.426590706049	554.112027283875	966.113572458507	490.912612959368	556.108380382557	1047.486452757518	788.994896813569	362.956983718713	1009.082432967622	661.085771132147	280.076176250767	1113.899345076715	604.092094096069	342.754565118095	1143.032841626613	534.303937370102	333.380955213822	1119.527754211473	460.954572139188	323.850782133183	1039.535531152994	338.839950526205	274.238551075907	1118.226315879387	231.469210354839	325.962079621109	935.818761685518	404.622137526084	556.367793283681	858.067123580174	300.163666260900	608.907613807825	901.261962811576	207.648505437736	541.370813912709	764.842050568028	44.623236494409	495.320067820410	936.642981807630	96.866862348848	536.463446544658	846.269101900412	36.726823059739	571.258621582063	1054.535947281329	40.818024087764	566.490296279499	1021.902489901502	55.394814578575	365.544795961136	1092.275905468358	60.415205427056	282.763101937341	1166.479729938514	135.241524950976	302.502572383998	1297.467150365458	102.754797738898	269.934894081359	823.294923140168	1102.873425043176	226.026799862969	808.352768040152	844.671777259174	220.224245900994	1098.400721077324	1105.986069647267	765.946904739190	1343.269422843782	1067.115102861134	701.471491511041	
